<svg width="36" height="36" viewBox="0 0 36 36" fill="none" xmlns="http://www.w3.org/2000/svg">
<g filter="url(#filter0_d_427_43037)">
<path d="M2 13.8C2 9.31958 2 7.07937 2.87195 5.36808C3.63893 3.86278 4.86278 2.63893 6.36808 1.87195C8.07937 1 10.3196 1 14.8 1H21.2C25.6804 1 27.9206 1 29.6319 1.87195C31.1372 2.63893 32.3611 3.86278 33.1281 5.36808C34 7.07937 34 9.31958 34 13.8V20.2C34 24.6804 34 26.9206 33.1281 28.6319C32.3611 30.1372 31.1372 31.3611 29.6319 32.1281C27.9206 33 25.6804 33 21.2 33H14.8C10.3196 33 8.07937 33 6.36808 32.1281C4.86278 31.3611 3.63893 30.1372 2.87195 28.6319C2 26.9206 2 24.6804 2 20.2V13.8Z" fill="white" shape-rendering="crispEdges"/>
<path d="M2.5 13.8C2.5 11.5515 2.50039 9.89526 2.60733 8.58633C2.7138 7.28324 2.92338 6.36848 3.31745 5.59507C4.0365 4.18386 5.18386 3.0365 6.59507 2.31745C7.36848 1.92338 8.28324 1.7138 9.58633 1.60733C10.8953 1.50039 12.5515 1.5 14.8 1.5H21.2C23.4485 1.5 25.1047 1.50039 26.4137 1.60733C27.7168 1.7138 28.6315 1.92338 29.4049 2.31745C30.8161 3.0365 31.9635 4.18386 32.6825 5.59507C33.0766 6.36848 33.2862 7.28324 33.3927 8.58633C33.4996 9.89526 33.5 11.5515 33.5 13.8V20.2C33.5 22.4485 33.4996 24.1047 33.3927 25.4137C33.2862 26.7168 33.0766 27.6315 32.6825 28.4049C31.9635 29.8161 30.8161 30.9635 29.4049 31.6825C28.6315 32.0766 27.7168 32.2862 26.4137 32.3927C25.1047 32.4996 23.4485 32.5 21.2 32.5H14.8C12.5515 32.5 10.8953 32.4996 9.58633 32.3927C8.28324 32.2862 7.36848 32.0766 6.59507 31.6825C5.18386 30.9635 4.0365 29.8161 3.31745 28.4049C2.92338 27.6315 2.7138 26.7168 2.60733 25.4137C2.50039 24.1047 2.5 22.4485 2.5 20.2V13.8Z" stroke="#D1D1DB" shape-rendering="crispEdges"/>
<path d="M16.5423 12.625L11.959 17L16.5423 21.375M24.0423 17H12.1673" stroke="#8A8AA3" stroke-width="1.5" stroke-linecap="round" stroke-linejoin="round"/>
</g>
<defs>
<filter id="filter0_d_427_43037" x="0" y="0" width="36" height="36" filterUnits="userSpaceOnUse" color-interpolation-filters="sRGB">
<feFlood flood-opacity="0" result="BackgroundImageFix"/>
<feColorMatrix in="SourceAlpha" type="matrix" values="0 0 0 0 0 0 0 0 0 0 0 0 0 0 0 0 0 0 127 0" result="hardAlpha"/>
<feOffset dy="1"/>
<feGaussianBlur stdDeviation="1"/>
<feComposite in2="hardAlpha" operator="out"/>
<feColorMatrix type="matrix" values="0 0 0 0 0.0705882 0 0 0 0 0.0705882 0 0 0 0 0.0901961 0 0 0 0.05 0"/>
<feBlend mode="normal" in2="BackgroundImageFix" result="effect1_dropShadow_427_43037"/>
<feBlend mode="normal" in="SourceGraphic" in2="effect1_dropShadow_427_43037" result="shape"/>
</filter>
</defs>
</svg>
