<svg width="16" height="16" viewBox="0 0 16 16" fill="none" xmlns="http://www.w3.org/2000/svg">
<path d="M14.3757 6.98245L13.8919 6.81868C13.4452 6.6698 13.1475 6.25294 13.1475 5.78398V4.30263C13.1475 3.54335 12.5296 2.91806 11.7629 2.91806H10.2816C9.81258 2.91806 9.39572 2.6203 9.24685 2.17367L9.08308 1.68981C8.90442 1.16129 8.42801 0.789096 7.86972 0.751876C7.31142 0.707213 6.7829 1.01241 6.53725 1.51116L2.80784 8.97742L1.70614 10.0791C1.13296 10.6523 0.820312 11.4116 0.820312 12.223C0.820312 13.0344 1.13296 13.7936 1.70614 14.3668C2.29421 14.9549 3.07582 15.2527 3.84999 15.2527C4.62416 15.2527 5.39833 14.9549 5.99385 14.3668L7.09555 13.2651L14.5618 9.53572C15.0606 9.28262 15.3583 8.76155 15.3211 8.20325C15.2839 7.64496 14.9117 7.16855 14.3832 6.98989L14.3757 6.98245ZM11.7629 4.03465C11.9118 4.03465 12.0309 4.15375 12.0309 4.30263V5.78398C12.0309 6.0594 12.083 6.31994 12.1798 6.56559L7.44541 9.1933L6.87223 8.62011L9.50738 3.88577C9.75303 3.9751 10.0136 4.03465 10.2816 4.03465H11.7629ZM6.87223 12.1188L3.94676 9.1933L4.58694 7.91294L8.15259 11.4786L6.87223 12.1188ZM7.53474 2.0099C7.60918 1.86847 7.73573 1.86102 7.78784 1.86102C7.83994 1.86102 7.97393 1.8908 8.0186 2.03968L8.18236 2.52353C8.27169 2.79151 8.41312 3.02972 8.58434 3.23071L6.04595 7.80128L5.10802 6.86335L7.53474 2.0099ZM2.4952 13.5703C2.13045 13.2056 1.9369 12.7292 1.9369 12.2155C1.9369 11.7019 2.13789 11.2255 2.4952 10.8607L3.26937 10.0866L5.97896 12.7962L5.20479 13.5703C4.4604 14.3147 3.24704 14.3147 2.4952 13.5703ZM14.0556 8.53079L9.20218 10.9575L8.26425 10.0196L12.8348 7.48119C13.0433 7.6524 13.274 7.79384 13.542 7.88316L14.0259 8.04693C14.1747 8.09904 14.2045 8.22558 14.2045 8.27769C14.2045 8.3298 14.2045 8.46379 14.0556 8.53823V8.53079Z" fill="#8A8AA3"/>
</svg>
