<svg width="17" height="16" viewBox="0 0 17 16" fill="none" xmlns="http://www.w3.org/2000/svg">
<path d="M9.04198 0.763626C9.09724 1.78083 8.9376 2.79826 8.57344 3.74966C8.20928 4.70105 7.64878 5.56505 6.92845 6.28538C6.20811 7.00571 5.34411 7.56621 4.39272 7.93037C3.44133 8.29453 2.4239 8.45418 1.40669 8.39891M15.8796 7.60098C14.8624 7.54571 13.8449 7.70536 12.8935 8.06952C11.9421 8.43368 11.0781 8.99418 10.3578 9.71451C9.63747 10.4348 9.07697 11.2988 8.71281 12.2502C8.34866 13.2016 8.18901 14.2191 8.24427 15.2363M6.22544 5.58237L7.83711 7.19404M9.44872 8.80566L11.0604 10.4173M7.83742 3.97084L9.44909 4.77668M4.61368 7.19413L5.41952 8.8058M11.8664 7.19413L12.6722 8.8058M7.83742 11.2233L9.44909 12.0291M3.51485 13.1285C4.18831 13.8019 4.98783 14.3361 5.86775 14.7006C6.74767 15.0651 7.69077 15.2527 8.64319 15.2527C9.5956 15.2527 10.5387 15.0651 11.4186 14.7006C12.2985 14.3361 13.0981 13.8019 13.7715 13.1285C14.445 12.455 14.9792 11.6555 15.3437 10.7756C15.7082 9.89563 15.8957 8.95254 15.8957 8.00012C15.8957 7.0477 15.7082 6.10461 15.3437 5.22468C14.9792 4.34476 14.445 3.54525 13.7715 2.87178C12.4114 1.51167 10.5667 0.747559 8.64319 0.747559C6.71969 0.747559 4.87497 1.51167 3.51485 2.87178C2.15473 4.2319 1.39063 6.07662 1.39063 8.00012C1.39062 9.92362 2.15473 11.7683 3.51485 13.1285Z" stroke="#8A8AA3" stroke-width="1.5" stroke-linecap="round" stroke-linejoin="round"/>
</svg>
