<svg width="17" height="16" viewBox="0 0 17 16" fill="none" xmlns="http://www.w3.org/2000/svg">
<path d="M8.92871 15.2498C9.88079 15.2498 10.8236 15.0622 11.7032 14.6979C12.5828 14.3335 13.382 13.7995 14.0552 13.1263C14.7285 12.4531 15.2625 11.6538 15.6268 10.7742C15.9912 9.8946 16.1787 8.95184 16.1787 7.99976C16.1787 7.04767 15.9912 6.10491 15.6268 5.2253C15.2625 4.34569 14.7285 3.54646 14.0552 2.87323C13.382 2.20001 12.5828 1.66598 11.7032 1.30163C10.8236 0.937282 9.88079 0.749756 8.92871 0.749756M8.92871 15.2498C7.97663 15.2498 7.03387 15.0622 6.15426 14.6979C5.27465 14.3335 4.47541 13.7995 3.80219 13.1263C3.12896 12.4531 2.59493 11.6538 2.23058 10.7742C1.86624 9.8946 1.67871 8.95184 1.67871 7.99976C1.67871 7.04767 1.86624 6.10491 2.23058 5.2253C2.59493 4.34569 3.12896 3.54646 3.80219 2.87323C4.47541 2.20001 5.27465 1.66598 6.15426 1.30163C7.03387 0.937282 7.97663 0.749756 8.92871 0.749756M8.92871 15.2498V0.749756M3.67871 3.74976C5.14671 4.44576 6.17871 6.08676 6.17871 7.99976C6.17871 9.91276 5.14671 11.5538 3.67871 12.2498M14.1787 3.74976C12.7097 4.44576 11.6787 6.08676 11.6787 7.99976C11.6787 9.91276 12.7097 11.5538 14.1787 12.2498" stroke="#8A8AA3" stroke-width="1.5" stroke-linecap="round" stroke-linejoin="round"/>
</svg>
