<svg width="24" height="24" viewBox="0 0 24 24" fill="none" xmlns="http://www.w3.org/2000/svg">
<path d="M5.07934 17.9146C4.8941 18.2851 5.04427 18.7356 5.41475 18.9208C5.78523 19.1061 6.23574 18.9559 6.42098 18.5854L5.07934 17.9146ZM17.5794 18.5854C17.7646 18.9559 18.2151 19.1061 18.5856 18.9208C18.9561 18.7356 19.1063 18.2851 18.921 17.9146L17.5794 18.5854ZM5.75016 18.25C6.42098 18.5854 6.42114 18.5851 6.42098 18.5854C6.42094 18.5855 6.42047 18.5864 6.42038 18.5866C6.42021 18.5869 6.42006 18.5872 6.41994 18.5875C6.4197 18.588 6.41998 18.5874 6.41994 18.5875C6.41986 18.5877 6.41963 18.588 6.42038 18.5866C6.42188 18.5837 6.4252 18.5775 6.43005 18.5685C6.43976 18.5506 6.4562 18.5211 6.47958 18.4816C6.52638 18.4025 6.6007 18.284 6.70421 18.1391C6.91177 17.8485 7.23329 17.4567 7.68154 17.0644C8.57093 16.2862 9.96376 15.5 12.0002 15.5V14C9.53656 14 7.80439 14.9638 6.69378 15.9356C6.14203 16.4183 5.7448 16.9015 5.48361 17.2672C5.35275 17.4504 5.25519 17.6053 5.18871 17.7176C5.15545 17.7738 5.12989 17.8195 5.11177 17.8529C5.10271 17.8696 5.0955 17.8832 5.09011 17.8936C5.08741 17.8987 5.08517 17.9031 5.08337 17.9066C5.08248 17.9084 5.08169 17.9099 5.08102 17.9112C5.08069 17.9119 5.08038 17.9125 5.0801 17.9131C5.07996 17.9134 5.08017 17.9129 5.0801 17.9131C5.07992 17.9134 5.07934 17.9146 5.75016 18.25ZM12.0002 15.5C14.0366 15.5 15.4294 16.2862 16.3188 17.0644C16.7671 17.4567 17.0886 17.8485 17.2961 18.1391C17.3997 18.284 17.474 18.4025 17.5208 18.4816C17.5442 18.5211 17.5606 18.5506 17.5703 18.5685C17.5752 18.5775 17.5783 18.5835 17.5798 18.5864C17.5806 18.5878 17.5809 18.5885 17.5808 18.5883C17.5808 18.5882 17.5811 18.5888 17.5808 18.5883C17.5807 18.588 17.5799 18.5867 17.5798 18.5864C17.5797 18.5862 17.5798 18.5865 17.5798 18.5864C17.5796 18.5861 17.5794 18.5854 18.2502 18.25C18.921 17.9146 18.9211 17.9149 18.921 17.9146C18.9209 17.9144 18.9204 17.9134 18.9203 17.9131C18.92 17.9125 18.9197 17.9119 18.9193 17.9112C18.9187 17.9099 18.9179 17.9084 18.917 17.9066C18.9152 17.9031 18.913 17.8987 18.9103 17.8936C18.9049 17.8832 18.8977 17.8696 18.8886 17.8529C18.8705 17.8195 18.8449 17.7738 18.8116 17.7176C18.7452 17.6053 18.6476 17.4504 18.5168 17.2672C18.2556 16.9015 17.8583 16.4183 17.3066 15.9356C16.196 14.9638 14.4638 14 12.0002 14V15.5Z" fill="#8A8AA3"/>
<path d="M12.2886 14.7372C12.4196 15.1301 12.8443 15.3425 13.2373 15.2115C13.6302 15.0805 13.8426 14.6558 13.7116 14.2628L12.2886 14.7372ZM15.4883 7.56945C15.8028 7.29989 15.8392 6.82641 15.5696 6.51192C15.3001 6.19742 14.8266 6.161 14.5121 6.43057L15.4883 7.56945ZM13.0001 14.5C13.7116 14.2628 13.7115 14.2625 13.7116 14.2628C13.7116 14.2629 13.7119 14.2637 13.712 14.2639C13.7119 14.2635 13.7116 14.2627 13.7108 14.2601C13.7092 14.255 13.7063 14.2459 13.7024 14.2328C13.6945 14.2065 13.6823 14.1646 13.6675 14.1086C13.6377 13.9963 13.5972 13.8279 13.5581 13.6148C13.4797 13.1869 13.4086 12.5879 13.437 11.9062C13.4936 10.5478 13.9404 8.8962 15.4883 7.56945L14.5121 6.43057C12.56 8.10382 12.0067 10.2022 11.9383 11.8438C11.9042 12.6621 11.9893 13.3756 12.0827 13.8852C12.1296 14.1409 12.179 14.3474 12.2176 14.493C12.2369 14.5658 12.2535 14.6236 12.2659 14.6647C12.2721 14.6853 12.2772 14.7017 12.2811 14.7139C12.283 14.7199 12.2846 14.7249 12.2859 14.7288C12.2865 14.7308 12.287 14.7324 12.2875 14.7338C12.2877 14.7345 12.2879 14.7351 12.2881 14.7357C12.2882 14.736 12.2885 14.737 12.2886 14.7372C12.2887 14.7375 12.2886 14.7372 13.0001 14.5Z" fill="#8A8AA3"/>
<path d="M15 7C15 7 10.75 8.25 8.75 10.25" stroke="#8A8AA3" stroke-width="1.5" stroke-linecap="round" stroke-linejoin="round"/>
<path d="M15 7C15 7 18 8 18 11" stroke="#8A8AA3" stroke-width="1.5" stroke-linecap="round" stroke-linejoin="round"/>
<path d="M15 7C15 7 12.95 5.75 8.75 5.75" stroke="#8A8AA3" stroke-width="1.5" stroke-linecap="round" stroke-linejoin="round"/>
<path d="M15 7C15 7 17.25 5.75 19.25 5.75" stroke="#8A8AA3" stroke-width="1.5" stroke-linecap="round" stroke-linejoin="round"/>
</svg>
