<svg width="16" height="16" viewBox="0 0 16 16" fill="none" xmlns="http://www.w3.org/2000/svg">
<path d="M0.75 15.25C0.75 15.25 0.74999 12.75 3 12.75C5.25001 12.75 5.5 15.25 5.5 15.25C5.5 15.25 5.74999 12.75 8 12.75C10.25 12.75 10.5 15.25 10.5 15.25C10.5 15.25 10.75 12.75 13 12.75C15.25 12.75 15.25 15.25 15.25 15.25M4.25 10C4.25 10.6904 3.69036 11.25 3 11.25C2.30964 11.25 1.75 10.6904 1.75 10C1.75 9.30964 2.30964 8.75 3 8.75C3.69036 8.75 4.25 9.30964 4.25 10ZM9.25 10C9.25 10.6904 8.69036 11.25 8 11.25C7.30964 11.25 6.75 10.6904 6.75 10C6.75 9.30964 7.30964 8.75 8 8.75C8.69036 8.75 9.25 9.30964 9.25 10ZM6.25 6C6.25 6.69036 5.69036 7.25 5 7.25C4.30964 7.25 3.75 6.69036 3.75 6C3.75 5.30964 4.30964 4.75 5 4.75C5.69036 4.75 6.25 5.30964 6.25 6ZM12.25 6C12.25 6.69036 11.6904 7.25 11 7.25C10.3096 7.25 9.75 6.69036 9.75 6C9.75 5.30964 10.3096 4.75 11 4.75C11.6904 4.75 12.25 5.30964 12.25 6ZM9.25 2C9.25 2.69036 8.69036 3.25 8 3.25C7.30964 3.25 6.75 2.69036 6.75 2C6.75 1.30964 7.30964 0.75 8 0.75C8.69036 0.75 9.25 1.30964 9.25 2ZM14.25 10C14.25 10.6904 13.6904 11.25 13 11.25C12.3096 11.25 11.75 10.6904 11.75 10C11.75 9.30964 12.3096 8.75 13 8.75C13.6904 8.75 14.25 9.30964 14.25 10Z" stroke="#7047EB" stroke-width="1.5" stroke-linecap="round" stroke-linejoin="round"/>
</svg>
