<svg width="16" height="16" viewBox="0 0 16 16" fill="none" xmlns="http://www.w3.org/2000/svg">
<path d="M7.26914 13.4744L6.463 14.2741C5.8446 14.887 5.01202 15.2354 4.14139 15.2454C3.27076 15.2554 2.43038 14.9264 1.79803 14.3278C1.16568 13.7293 0.79097 12.9083 0.753165 12.0384C0.71536 11.1686 1.01743 10.3181 1.59547 9.66698L1.72203 9.53315L8.39856 2.76069L9.60778 3.96992L12.389 1.23627C12.6955 0.932567 13.1072 0.758681 13.5386 0.75077C13.9699 0.74286 14.3878 0.901533 14.7051 1.19379C15.0225 1.48605 15.215 1.8894 15.2427 2.31997C15.2703 2.75053 15.1308 3.17517 14.8534 3.50558L14.7599 3.60715L12.0262 6.38837L13.2355 7.59759L10.2785 10.5134M6.78133 4.3728L11.6182 9.20969M7.1845 12.8375C7.1845 13.1551 7.24705 13.4696 7.36859 13.763C7.49013 14.0564 7.66827 14.323 7.89284 14.5476C8.11742 14.7721 8.38403 14.9503 8.67745 15.0718C8.97086 15.1934 9.28535 15.2559 9.60295 15.2559C9.92054 15.2559 10.235 15.1934 10.5284 15.0718C10.8219 14.9503 11.0885 14.7721 11.313 14.5476C11.5376 14.323 11.7158 14.0564 11.8373 13.763C11.9588 13.4696 12.0214 13.1551 12.0214 12.8375C12.0214 12.5199 11.9588 12.2054 11.8373 11.912C11.7158 11.6186 11.5376 11.3519 11.313 11.1274C11.0885 10.9028 10.8219 10.7247 10.5284 10.6031C10.235 10.4816 9.92054 10.419 9.60295 10.419C9.28535 10.419 8.97086 10.4816 8.67745 10.6031C8.38403 10.7247 8.11742 10.9028 7.89284 11.1274C7.66827 11.3519 7.49013 11.6186 7.36859 11.912C7.24705 12.2054 7.1845 12.5199 7.1845 12.8375Z" stroke="#8A8AA3" stroke-width="1.5" stroke-linecap="round" stroke-linejoin="round"/>
</svg>
