<svg width="28" height="28" viewBox="0 0 24 24" fill="none" xmlns="http://www.w3.org/2000/svg">
<path d="M4.75 19.25C4.75 19.25 4.74999 16.75 7 16.75C9.25001 16.75 9.5 19.25 9.5 19.25C9.5 19.25 9.74999 16.75 12 16.75C14.25 16.75 14.5 19.25 14.5 19.25C14.5 19.25 14.75 16.75 17 16.75C19.25 16.75 19.25 19.25 19.25 19.25M8.25 14C8.25 14.6904 7.69036 15.25 7 15.25C6.30964 15.25 5.75 14.6904 5.75 14C5.75 13.3096 6.30964 12.75 7 12.75C7.69036 12.75 8.25 13.3096 8.25 14ZM13.25 14C13.25 14.6904 12.6904 15.25 12 15.25C11.3096 15.25 10.75 14.6904 10.75 14C10.75 13.3096 11.3096 12.75 12 12.75C12.6904 12.75 13.25 13.3096 13.25 14ZM10.25 10C10.25 10.6904 9.69036 11.25 9 11.25C8.30964 11.25 7.75 10.6904 7.75 10C7.75 9.30964 8.30964 8.75 9 8.75C9.69036 8.75 10.25 9.30964 10.25 10ZM16.25 10C16.25 10.6904 15.6904 11.25 15 11.25C14.3096 11.25 13.75 10.6904 13.75 10C13.75 9.30964 14.3096 8.75 15 8.75C15.6904 8.75 16.25 9.30964 16.25 10ZM13.25 6C13.25 6.69036 12.6904 7.25 12 7.25C11.3096 7.25 10.75 6.69036 10.75 6C10.75 5.30964 11.3096 4.75 12 4.75C12.6904 4.75 13.25 5.30964 13.25 6ZM18.25 14C18.25 14.6904 17.6904 15.25 17 15.25C16.3096 15.25 15.75 14.6904 15.75 14C15.75 13.3096 16.3096 12.75 17 12.75C17.6904 12.75 18.25 13.3096 18.25 14Z" stroke="#7047EB" stroke-width="1.5" stroke-linecap="round" stroke-linejoin="round"/>
</svg>
