<svg width="32" height="32" viewBox="0 0 32 32" fill="none" xmlns="http://www.w3.org/2000/svg">
<path d="M9.66634 25.6668H6.33301V17.0002H9.66634V19.6668M9.66634 25.6668V19.6668M9.66634 25.6668C18.6663 25.6668 25.6663 21.3335 25.6663 21.3335V18.3335H17.6663M9.66634 19.6668L14.373 17.1575C14.5658 17.0545 14.781 17.0004 14.9997 17.0002H16.333C16.6866 17.0002 17.0258 17.1406 17.2758 17.3907C17.5259 17.6407 17.6663 17.9799 17.6663 18.3335M17.6663 18.3335V20.0002L14.333 21.6668M23.9997 13.6668H24.1663C24.5642 13.6668 24.9457 13.5088 25.227 13.2275C25.5083 12.9462 25.6663 12.5647 25.6663 12.1668C25.6663 11.769 25.5083 11.3875 25.227 11.1062C24.9457 10.8249 24.5642 10.6668 24.1663 10.6668H23.833C23.4352 10.6668 23.0537 10.5088 22.7723 10.2275C22.491 9.94618 22.333 9.56465 22.333 9.16683C22.333 8.769 22.491 8.38747 22.7723 8.10617C23.0537 7.82486 23.4352 7.66683 23.833 7.66683H23.9997M23.9997 13.6668H22.333M23.9997 13.6668V15.0002M23.9997 7.66683H25.6663M23.9997 7.66683V6.3335" stroke="#8A8AA3" stroke-width="2" stroke-linecap="round" stroke-linejoin="round"/>
</svg>
