<svg width="33" height="32" viewBox="0 0 33 32" fill="none" xmlns="http://www.w3.org/2000/svg">
<path d="M0.666016 12.8C0.666016 8.31958 0.666016 6.07937 1.53796 4.36808C2.30495 2.86278 3.5288 1.63893 5.03409 0.871948C6.74539 0 8.9856 0 13.466 0H19.866C24.3464 0 26.5866 0 28.2979 0.871948C29.8032 1.63893 31.0271 2.86278 31.7941 4.36808C32.666 6.07937 32.666 8.31958 32.666 12.8V19.2C32.666 23.6804 32.666 25.9206 31.7941 27.6319C31.0271 29.1372 29.8032 30.3611 28.2979 31.1281C26.5866 32 24.3464 32 19.866 32H13.466C8.9856 32 6.74539 32 5.03409 31.1281C3.5288 30.3611 2.30495 29.1372 1.53796 27.6319C0.666016 25.9206 0.666016 23.6804 0.666016 19.2V12.8Z" fill="#F7F7F8"/>
<path d="M17.0833 12.6667C17.0833 12.8968 16.8968 13.0833 16.6667 13.0833C16.4365 13.0833 16.25 12.8968 16.25 12.6667C16.25 12.4365 16.4365 12.25 16.6667 12.25C16.8968 12.25 17.0833 12.4365 17.0833 12.6667Z" stroke="#8A8AA3"/>
<path d="M17.0833 16C17.0833 16.2301 16.8968 16.4167 16.6667 16.4167C16.4365 16.4167 16.25 16.2301 16.25 16C16.25 15.7699 16.4365 15.5833 16.6667 15.5833C16.8968 15.5833 17.0833 15.7699 17.0833 16Z" stroke="#8A8AA3"/>
<path d="M17.0833 19.3333C17.0833 19.5635 16.8968 19.75 16.6667 19.75C16.4365 19.75 16.25 19.5635 16.25 19.3333C16.25 19.1032 16.4365 18.9167 16.6667 18.9167C16.8968 18.9167 17.0833 19.1032 17.0833 19.3333Z" stroke="#8A8AA3"/>
</svg>
