<svg width="16" height="12" viewBox="0 0 16 12" fill="none" xmlns="http://www.w3.org/2000/svg">
<path d="M1.25 8.25C2.63071 8.25 3.75 9.3693 3.75 10.75M14.75 8.25C13.3693 8.25 12.25 9.3693 12.25 10.75M1.25 3.75C2.63071 3.75 3.75 2.63071 3.75 1.25M14.75 3.75C13.3693 3.75 12.25 2.63071 12.25 1.25M13.25 0.75H2.75C1.64543 0.75 0.75 1.64543 0.75 2.75V9.25C0.75 10.3546 1.64543 11.25 2.75 11.25H13.25C14.3546 11.25 15.25 10.3546 15.25 9.25V2.75C15.25 1.64543 14.3546 0.75 13.25 0.75ZM10.25 6C10.25 7.7949 9.2426 9.25 8 9.25C6.7574 9.25 5.75 7.7949 5.75 6C5.75 4.2051 6.7574 2.75 8 2.75C9.2426 2.75 10.25 4.2051 10.25 6Z" stroke="#121217" stroke-width="1.5" stroke-linecap="round" stroke-linejoin="round"/>
</svg>
