<svg width="22" height="16" viewBox="0 0 22 16" fill="none" xmlns="http://www.w3.org/2000/svg">
<path d="M1.66667 11C3.50761 11 5 12.4924 5 14.3333M19.6667 11C17.8257 11 16.3333 12.4924 16.3333 14.3333M1.66667 5C3.50761 5 5 3.50761 5 1.66667M19.6667 5C17.8257 5 16.3333 3.50761 16.3333 1.66667M17.6667 1H3.66667C2.19391 1 1 2.19391 1 3.66667V12.3333C1 13.8061 2.19391 15 3.66667 15H17.6667C19.1395 15 20.3333 13.8061 20.3333 12.3333V3.66667C20.3333 2.19391 19.1395 1 17.6667 1ZM13.6667 8C13.6667 10.3932 12.3235 12.3333 10.6667 12.3333C9.00987 12.3333 7.66667 10.3932 7.66667 8C7.66667 5.6068 9.00987 3.66667 10.6667 3.66667C12.3235 3.66667 13.6667 5.6068 13.6667 8Z" stroke="#8A8AA3" stroke-width="2" stroke-linecap="round" stroke-linejoin="round"/>
</svg>
