<svg width="28" height="24" viewBox="0 0 28 24" fill="none" xmlns="http://www.w3.org/2000/svg">
<path d="M8.75 9.25L10 7.75L11.25 9.25M15.25 7.25L14 6L15.25 4.75M22 7.25L23.25 6L22 4.75M8.75 17.75L10 19.25L11.25 17.75M10 18.5V8.5M23 6H15M14.75 12.75C14.75 11.6454 15.6454 10.75 16.75 10.75H21.25C22.3546 10.75 23.25 11.6454 23.25 12.75V17.25C23.25 18.3546 22.3546 19.25 21.25 19.25H16.75C15.6454 19.25 14.75 18.3546 14.75 17.25V12.75Z" stroke="#8A8AA3" stroke-width="1.5" stroke-linecap="round" stroke-linejoin="round"/>
</svg>
