<svg width="57" height="56" viewBox="0 0 57 56" fill="none" xmlns="http://www.w3.org/2000/svg">
<path d="M11.5835 37.333L17.9913 29.1819C19.8083 26.8706 23.2841 26.795 25.1999 29.0251L30.8335 35.583M25.9686 29.92C28.3886 26.8416 31.7606 22.4803 31.98 22.1965C31.9878 22.1864 31.9953 22.1768 32.0033 22.1667C33.8235 19.8703 37.2883 19.7999 39.1999 22.0251L44.8335 28.583M16.2502 44.9163H40.7502C43.3275 44.9163 45.4168 42.827 45.4168 40.2497V15.7497C45.4168 13.1723 43.3275 11.083 40.7502 11.083H16.2502C13.6728 11.083 11.5835 13.1723 11.5835 15.7497V40.2497C11.5835 42.827 13.6728 44.9163 16.2502 44.9163Z" stroke="#8A8AA3" stroke-width="3.5" stroke-linecap="round" stroke-linejoin="round"/>
</svg>
