<svg width="17" height="16" viewBox="0 0 17 16" fill="none" xmlns="http://www.w3.org/2000/svg">
<path d="M8.2154 0.76123C9.16602 0.76123 10.1073 0.948469 10.9856 1.31225C11.8638 1.67604 12.6618 2.20925 13.334 2.88144C14.0062 3.55363 14.5394 4.35163 14.9032 5.22989C15.267 6.10814 15.4542 7.04945 15.4542 8.00007C15.4542 8.95069 15.267 9.892 14.9032 10.7703C14.5394 11.6485 14.0062 12.4465 13.334 13.1187C12.6618 13.7909 11.8638 14.3241 10.9856 14.6879C10.1073 15.0517 9.16602 15.2389 8.2154 15.2389C7.26478 15.2389 6.32347 15.0517 5.44522 14.6879C4.56696 14.3241 3.76896 13.7909 3.09677 13.1187C2.42458 12.4465 1.89137 11.6485 1.52759 10.7703C1.1638 9.892 0.976562 8.95069 0.976562 8.00007C0.976562 7.04945 1.1638 6.10814 1.52759 5.22989C1.89137 4.35163 2.42458 3.55363 3.09677 2.88144C3.76896 2.20925 4.56696 1.67604 5.44522 1.31225C6.32347 0.948469 7.26478 0.76123 8.2154 0.76123ZM8.2154 0.76123L8.21589 3.97845M8.21589 3.97845L12.0444 6.75333M8.21589 3.97845L4.38735 6.75333M12.0444 6.75333L10.6288 11.2173M12.0444 6.75333L15.0521 5.58712M10.6288 11.2173H5.80294L4.38735 6.75333M10.6288 11.2173L12.6392 13.6303M4.38735 6.75333L1.37877 5.58712M5.85076 11.2575L3.79171 13.6303" stroke="#8A8AA3" stroke-width="1.5" stroke-linecap="round" stroke-linejoin="round"/>
</svg>
