<svg width="50" height="51" viewBox="0 0 40 41" fill="none" xmlns="http://www.w3.org/2000/svg">
<path d="M12.0827 32.5834H7.91602V21.7501H12.0827V25.0834M12.0827 32.5834V25.0834M12.0827 32.5834C23.3327 32.5834 32.0827 27.1667 32.0827 27.1667V23.4167H22.0827M12.0827 25.0834L17.966 21.9467C18.2071 21.818 18.4761 21.7504 18.7493 21.7501H20.416C20.858 21.7501 21.282 21.9257 21.5945 22.2382C21.9071 22.5508 22.0827 22.9747 22.0827 23.4167M22.0827 23.4167V25.5001L17.916 27.5834M29.9993 17.5834H30.2077C30.705 17.5834 31.1819 17.3859 31.5335 17.0342C31.8851 16.6826 32.0827 16.2057 32.0827 15.7084C32.0827 15.2111 31.8851 14.7342 31.5335 14.3826C31.1819 14.031 30.705 13.8334 30.2077 13.8334H29.791C29.2937 13.8334 28.8168 13.6359 28.4652 13.2842C28.1136 12.9326 27.916 12.4557 27.916 11.9584C27.916 11.4611 28.1136 10.9842 28.4652 10.6326C28.8168 10.281 29.2937 10.0834 29.791 10.0834H29.9993M29.9993 17.5834H27.916M29.9993 17.5834V19.2501M29.9993 10.0834H32.0827M29.9993 10.0834V8.41675" stroke="#DB0BB9" stroke-width="2.25" stroke-linecap="round" stroke-linejoin="round"/>
</svg>
