<svg width="40" height="41" viewBox="0 0 40 41" fill="none" xmlns="http://www.w3.org/2000/svg">
<path d="M8.74935 24.25C11.0505 24.25 12.916 26.1155 12.916 28.4167M31.2493 24.25C28.9482 24.25 27.0827 26.1155 27.0827 28.4167M8.74935 16.75C11.0505 16.75 12.916 14.8845 12.916 12.5833M31.2493 16.75C28.9482 16.75 27.0827 14.8845 27.0827 12.5833M28.7493 11.75H11.2493C9.4084 11.75 7.91602 13.2424 7.91602 15.0833V25.9167C7.91602 27.7577 9.4084 29.25 11.2493 29.25H28.7493C30.5903 29.25 32.0827 27.7577 32.0827 25.9167V15.0833C32.0827 13.2424 30.5903 11.75 28.7493 11.75ZM23.7493 20.5C23.7493 23.4915 22.0703 25.9167 19.9993 25.9167C17.9283 25.9167 16.2493 23.4915 16.2493 20.5C16.2493 17.5085 17.9283 15.0833 19.9993 15.0833C22.0703 15.0833 23.7493 17.5085 23.7493 20.5Z" stroke="#EB3A00" stroke-width="2.25" stroke-linecap="round" stroke-linejoin="round"/>
</svg>
