<svg width="16" height="16" viewBox="0 0 16 16" fill="none" xmlns="http://www.w3.org/2000/svg">
<path d="M10.75 2.75L12.25 4.25C13 2 15.25 0.75 15.25 0.75M7.25 3C7.25 3.59674 7.01295 4.16903 6.59099 4.59099C6.16903 5.01295 5.59674 5.25 5 5.25C4.40326 5.25 3.83097 5.01295 3.40901 4.59099C2.98705 4.16903 2.75 3.59674 2.75 3C2.75 2.40326 2.98705 1.83097 3.40901 1.40901C3.83097 0.987053 4.40326 0.75 5 0.75C5.59674 0.75 6.16903 0.987053 6.59099 1.40901C7.01295 1.83097 7.25 2.40326 7.25 3ZM0.75 10.25C0.75 7.5 1.6 5.75 5 5.75C8.4 5.75 9.25 7.5 9.25 10.25H7.25V13.25C7.25 13.7804 7.03929 14.2891 6.66421 14.6642C6.28914 15.0393 5.78043 15.25 5.25 15.25H4.75C4.21957 15.25 3.71086 15.0393 3.33579 14.6642C2.96071 14.2891 2.75 13.7804 2.75 13.25V10.25H0.75Z" stroke="#8A8AA3" stroke-width="1.5" stroke-linecap="round" stroke-linejoin="round"/>
</svg>
