<svg width="16" height="16" viewBox="0 0 16 16" fill="none" xmlns="http://www.w3.org/2000/svg">
<path d="M3.25 15.25H0.75V8.75H3.25V10.75M3.25 15.25V10.75M3.25 15.25C10 15.25 15.25 12 15.25 12V9.75H9.25M3.25 10.75L6.78 8.868C6.92462 8.79073 7.08603 8.75021 7.25 8.75H8.25C8.51522 8.75 8.76957 8.85536 8.95711 9.04289C9.14464 9.23043 9.25 9.48478 9.25 9.75M9.25 9.75V11L6.75 12.25M14 6.25H14.125C14.4234 6.25 14.7095 6.13147 14.9205 5.9205C15.1315 5.70952 15.25 5.42337 15.25 5.125C15.25 4.82663 15.1315 4.54048 14.9205 4.3295C14.7095 4.11853 14.4234 4 14.125 4H13.875C13.5766 4 13.2905 3.88147 13.0795 3.6705C12.8685 3.45952 12.75 3.17337 12.75 2.875C12.75 2.57663 12.8685 2.29048 13.0795 2.0795C13.2905 1.86853 13.5766 1.75 13.875 1.75H14M14 6.25H12.75M14 6.25V7.25M14 1.75H15.25M14 1.75V0.75" stroke="#8A8AA3" stroke-width="1.5" stroke-linecap="round" stroke-linejoin="round"/>
</svg>
