<svg width="20" height="24" viewBox="0 0 20 24" fill="none" xmlns="http://www.w3.org/2000/svg">
<path d="M7.97328 5.13104C7.81612 5.13103 7.66412 5.18712 7.54462 5.28921C7.42513 5.39129 7.346 5.53267 7.32146 5.68791L6.23813 12.5571L5.24279 18.8691L5.24219 18.8744L5.24339 18.8691L6.23874 12.5571C6.28934 12.2363 6.56555 12.0003 6.8902 12.0003H10.0639C13.2578 12.0003 15.9687 9.67001 16.4638 6.51234C16.5016 6.27243 16.5218 6.0348 16.5263 5.8003V5.79993H16.526C15.7143 5.37408 14.7611 5.13104 13.7167 5.13104H7.97328Z" fill="#55556D"/>
<path d="M16.5274 5.7998C16.5229 6.03431 16.5025 6.27218 16.4649 6.51209C15.9698 9.66976 13.2589 12 10.0649 12H6.89125C6.5666 12 6.29039 12.2361 6.23979 12.5569L5.24445 18.8689L4.61979 22.829C4.60776 22.9055 4.61244 22.9836 4.63352 23.0582C4.65459 23.1327 4.69156 23.2017 4.74187 23.2606C4.79219 23.3194 4.85466 23.3667 4.92498 23.3991C4.99531 23.4315 5.07182 23.4483 5.14925 23.4483H8.59408C8.75124 23.4483 8.90325 23.3923 9.02274 23.2902C9.14223 23.1881 9.22137 23.0467 9.2459 22.8915L10.1534 17.1363C10.2042 16.8155 10.4806 16.5791 10.8052 16.5791H12.8336C16.0276 16.5791 18.7381 14.249 19.2332 11.0916C19.5847 8.85002 18.4567 6.81089 16.5274 5.7998Z" fill="#D1D1DB"/>
<path d="M4.06071 0.551636C3.90349 0.551641 3.75144 0.607777 3.63194 0.709936C3.51243 0.812095 3.43334 0.953565 3.40888 1.10887L0.705786 18.2498C0.693696 18.3263 0.698338 18.4046 0.719387 18.4791C0.740435 18.5537 0.777392 18.6228 0.827713 18.6817C0.878035 18.7406 0.940528 18.7879 1.01088 18.8203C1.08124 18.8527 1.15778 18.8695 1.23525 18.8695H5.24392L6.23926 12.5576L7.32259 5.68834C7.34713 5.5331 7.42626 5.39172 7.54575 5.28963C7.66524 5.18755 7.81725 5.13146 7.97441 5.13147H13.7176C14.7622 5.13147 15.7154 5.37487 16.5272 5.80012C16.5825 2.92539 14.2104 0.551636 10.9487 0.551636H4.06071Z" fill="#6C6C89"/>
</svg>
