<svg width="29" height="28" viewBox="0 0 29 28" fill="none" xmlns="http://www.w3.org/2000/svg">
<path d="M12.1893 5.60059C11.9971 5.60058 11.8113 5.66916 11.6651 5.79399C11.519 5.91883 11.4222 6.09172 11.3922 6.28155L10.0675 14.6815L8.85034 22.4001L8.84961 22.4066L8.85108 22.4001L10.0682 14.6815C10.1301 14.2892 10.4679 14.0006 10.8649 14.0006H14.7458C18.6515 14.0006 21.9665 11.151 22.5719 7.2897C22.6181 6.99632 22.6428 6.70574 22.6484 6.41898V6.41854H22.6479C21.6554 5.89778 20.4898 5.60059 19.2127 5.60059H12.1893Z" fill="#001C64"/>
<path d="M22.6492 6.41797C22.6438 6.70473 22.6188 6.9956 22.5728 7.28898C21.9673 11.1503 18.6523 13.9999 14.7466 13.9999H10.8657C10.4687 13.9999 10.1309 14.2885 10.0691 14.6808L8.8519 22.3994L8.08804 27.242C8.07333 27.3355 8.07905 27.4312 8.10482 27.5223C8.1306 27.6134 8.1758 27.6978 8.23733 27.7698C8.29885 27.8418 8.37525 27.8996 8.46124 27.9392C8.54724 27.9788 8.6408 27.9994 8.73549 27.9994H12.948C13.1402 27.9994 13.326 27.9308 13.4722 27.806C13.6183 27.6812 13.7151 27.5083 13.7451 27.3184L14.8548 20.2808C14.9169 19.8885 15.2549 19.5994 15.6519 19.5994H18.1323C22.038 19.5994 25.3526 16.75 25.958 12.889C26.3878 10.1479 25.0084 7.65438 22.6492 6.41797Z" fill="#0070E0"/>
<path d="M7.40355 0C7.2113 5.98915e-06 7.02536 0.0686525 6.87923 0.193577C6.7331 0.318502 6.63637 0.491497 6.60647 0.681408L3.301 21.6421C3.28622 21.7357 3.29189 21.8314 3.31763 21.9225C3.34337 22.0137 3.38856 22.0982 3.4501 22.1702C3.51163 22.2423 3.58805 22.3001 3.67409 22.3398C3.76012 22.3794 3.85372 22.4 3.94846 22.4H8.85044L10.0676 14.6814L11.3923 6.2814C11.4223 6.09157 11.5191 5.91868 11.6652 5.79384C11.8113 5.66901 11.9972 5.60042 12.1894 5.60044H19.2125C20.4899 5.60044 21.6555 5.89807 22.6482 6.41809C22.7158 2.90274 19.8151 0 15.8265 0H7.40355Z" fill="#003087"/>
</svg>
