<svg width="32" height="32" viewBox="0 0 22 22" fill="none" xmlns="http://www.w3.org/2000/svg">
<path d="M16.6667 15.3335C18.4667 15.3335 20.3333 11.9721 20.3333 8.3335C20.3333 4.69491 18.4667 1.3335 16.6667 1.3335M16.6667 15.3335C14.8666 15.3335 13 11.9721 13 8.3335C13 4.69491 14.8666 1.3335 16.6667 1.3335M16.6667 15.3335C16.6667 15.3335 5.33333 13.0002 4 12.6668C2.66667 12.3335 1 10.586 1 8.3335C1 6.08104 2.66667 4.3335 4 4.00016C5.33333 3.66683 16.6667 1.3335 16.6667 1.3335M3.66667 13.0002V18.0002C3.66667 19.4729 4.86057 20.6668 6.33333 20.6668H7C8.47276 20.6668 9.66667 19.4729 9.66667 18.0002V14.3335" stroke="#8A8AA3" stroke-width="2"/>
</svg>
