<svg width="50" height="50" viewBox="0 0 28 21" fill="none" xmlns="http://www.w3.org/2000/svg">
<path d="M2.74935 14.25C5.05053 14.25 6.91602 16.1155 6.91602 18.4167M25.2493 14.25C22.9482 14.25 21.0827 16.1155 21.0827 18.4167M2.74935 6.75C5.05053 6.75 6.91602 4.88452 6.91602 2.58333M25.2493 6.75C22.9482 6.75 21.0827 4.88452 21.0827 2.58333M22.7493 1.75H5.24935C3.4084 1.75 1.91602 3.24238 1.91602 5.08333V15.9167C1.91602 17.7577 3.4084 19.25 5.24935 19.25H22.7493C24.5903 19.25 26.0827 17.7577 26.0827 15.9167V5.08333C26.0827 3.24238 24.5903 1.75 22.7493 1.75ZM17.7493 10.5C17.7493 13.4915 16.0703 15.9167 13.9993 15.9167C11.9283 15.9167 10.2493 13.4915 10.2493 10.5C10.2493 7.5085 11.9283 5.08333 13.9993 5.08333C16.0703 5.08333 17.7493 7.5085 17.7493 10.5Z" stroke="#EB3A00" stroke-width="2.25" stroke-linecap="round" stroke-linejoin="round"/>
</svg>
