<svg width="28" height="28" viewBox="0 0 28 28" fill="none" xmlns="http://www.w3.org/2000/svg">
<path d="M5.5415 11.3748V11.9582M5.5415 16.0415V16.6248M5.5415 20.7082V21.2915C5.5415 21.6009 5.66442 21.8977 5.88321 22.1165C6.10201 22.3353 6.39875 22.4582 6.70817 22.4582H7.2915M11.3748 22.4582H11.9582M16.0415 22.4582H16.6248M12.5415 17.7915H20.1248C20.7437 17.7915 21.3372 17.5457 21.7748 17.1081C22.2123 16.6705 22.4582 16.077 22.4582 15.4582V7.87484C22.4582 7.256 22.2123 6.66251 21.7748 6.22492C21.3372 5.78734 20.7437 5.5415 20.1248 5.5415H12.5415C11.9227 5.5415 11.3292 5.78734 10.8916 6.22492C10.454 6.66251 10.2082 7.256 10.2082 7.87484V15.4582C10.2082 16.077 10.454 16.6705 10.8916 17.1081C11.3292 17.5457 11.9227 17.7915 12.5415 17.7915Z" stroke="#121217" stroke-width="1.75" stroke-linecap="round" stroke-linejoin="round"/>
</svg>
