<svg width="24" height="24" viewBox="0 0 33 32" fill="none" xmlns="http://www.w3.org/2000/svg">
<path d="M6.66797 16.0002C6.66797 10.6614 10.9959 6.3335 16.3346 6.3335C21.6734 6.3335 26.0013 10.6614 26.0013 16.0002V17.6668C26.0013 19.1396 24.8074 20.3335 23.3346 20.3335H22.0013V24.3335C22.0013 25.0699 21.4044 25.6668 20.668 25.6668H12.0013C11.2649 25.6668 10.668 25.0699 10.668 24.3335V20.3335H9.33464C7.86188 20.3335 6.66797 19.1396 6.66797 17.6668V16.0002Z" stroke="#8A8AA3" stroke-width="2" stroke-linecap="round" stroke-linejoin="round"/>
<path d="M22.0013 14.6667C22.0013 15.5872 21.2552 16.3333 20.3346 16.3333C19.4141 16.3333 18.668 15.5872 18.668 14.6667C18.668 13.7461 19.4141 13 20.3346 13C21.2552 13 22.0013 13.7461 22.0013 14.6667Z" stroke="#8A8AA3" stroke-width="2" stroke-linecap="round" stroke-linejoin="round"/>
<path d="M14.0013 14.6667C14.0013 15.5872 13.2551 16.3333 12.3346 16.3333C11.4142 16.3333 10.668 15.5872 10.668 14.6667C10.668 13.7461 11.4142 13 12.3346 13C13.2551 13 14.0013 13.7461 14.0013 14.6667Z" stroke="#8A8AA3" stroke-width="2" stroke-linecap="round" stroke-linejoin="round"/>
<path d="M14.668 23.6665V25.6665" stroke="#8A8AA3" stroke-width="2" stroke-linecap="round" stroke-linejoin="round"/>
<path d="M18 23.6665V25.6665" stroke="#8A8AA3" stroke-width="2" stroke-linecap="round" stroke-linejoin="round"/>
</svg>
