<svg width="16" height="16" viewBox="0 0 16 16" fill="none" xmlns="http://www.w3.org/2000/svg">
<path d="M0.75 5.25L2 3.75L3.25 5.25M7.25 3.25L6 2L7.25 0.75M14 3.25L15.25 2L14 0.75M0.75 13.75L2 15.25L3.25 13.75M2 14.5V4.5M15 2H7M6.75 8.75C6.75 7.6454 7.6454 6.75 8.75 6.75H13.25C14.3546 6.75 15.25 7.6454 15.25 8.75V13.25C15.25 14.3546 14.3546 15.25 13.25 15.25H8.75C7.6454 15.25 6.75 14.3546 6.75 13.25V8.75Z" stroke="#8A8AA3" stroke-width="1.5" stroke-linecap="round" stroke-linejoin="round"/>
</svg>
