<svg width="17" height="16" viewBox="0 0 17 16" fill="none" xmlns="http://www.w3.org/2000/svg">
<path d="M9.36422 15.02C8.05344 15.3906 6.65675 15.3159 5.39298 14.8075C4.12922 14.2992 3.06981 13.386 2.38073 12.211C1.69166 11.036 1.41187 9.66554 1.58519 8.31445C1.75852 6.96335 2.37517 5.70794 3.33853 4.7449L3.91854 4.16489C4.86339 3.22004 6.08996 2.60821 7.41311 2.42176C8.73625 2.23531 10.0841 2.48437 11.2533 3.13134L13.1762 1.24227C13.4824 0.938785 13.8939 0.765023 14.3249 0.757118C14.756 0.749213 15.1735 0.907772 15.4907 1.19982C15.8078 1.49187 16.0002 1.89494 16.0278 2.32519C16.0554 2.75545 15.9161 3.17979 15.6388 3.50996L15.5454 3.61146L13.6555 5.53436C14.2801 6.66332 14.5344 7.95997 14.3823 9.24121C14.2303 10.5225 13.6796 11.7236 12.808 12.675M6.61042 2.60366L14.1828 10.1761M7.98056 12.8342C7.98056 13.1516 8.04307 13.4659 8.16453 13.7591C8.28598 14.0523 8.46399 14.3187 8.68841 14.5431C8.91282 14.7675 9.17924 14.9455 9.47245 15.067C9.76566 15.1884 10.0799 15.2509 10.3973 15.2509C10.7147 15.2509 11.0289 15.1884 11.3221 15.067C11.6153 14.9455 11.8818 14.7675 12.1062 14.5431C12.3306 14.3187 12.5086 14.0523 12.63 13.7591C12.7515 13.4659 12.814 13.1516 12.814 12.8342C12.814 12.5169 12.7515 12.2026 12.63 11.9094C12.5086 11.6162 12.3306 11.3498 12.1062 11.1253C11.8818 10.9009 11.6153 10.7229 11.3221 10.6015C11.0289 10.48 10.7147 10.4175 10.3973 10.4175C10.0799 10.4175 9.76566 10.48 9.47245 10.6015C9.17924 10.7229 8.91282 10.9009 8.68841 11.1253C8.46399 11.3498 8.28598 11.6162 8.16453 11.9094C8.04307 12.2026 7.98056 12.5169 7.98056 12.8342Z" stroke="#8A8AA3" stroke-width="1.5" stroke-linecap="round" stroke-linejoin="round"/>
</svg>
