<svg width="28" height="28" viewBox="0 0 28 28" fill="none" xmlns="http://www.w3.org/2000/svg">
<path d="M12.5017 9.23047C12.0512 9.37213 11.6206 9.57766 11.2237 9.84288C10.4014 10.3923 9.76053 11.1732 9.38208 12.0869C9.00363 13.0005 8.90461 14.0059 9.09754 14.9758C9.29048 15.9458 9.76669 16.8367 10.466 17.536C11.1653 18.2353 12.0562 18.7115 13.0261 18.9044C13.9961 19.0974 15.0014 18.9983 15.9151 18.6199C16.8288 18.2414 17.6097 17.6006 18.1591 16.7783C18.4243 16.3813 18.6299 15.9507 18.7715 15.5002M15.0018 5.05514C13.1478 4.84715 11.275 5.22043 9.64239 6.12335C8.00983 7.02627 6.69819 8.4142 5.88892 10.0952C5.07965 11.7761 4.81274 13.667 5.12512 15.5063C5.43749 17.3456 6.31371 19.0423 7.63257 20.3619C8.95143 21.6814 10.6478 22.5585 12.4869 22.8718C14.326 23.1851 16.217 22.9191 17.8984 22.1107C19.5798 21.3023 20.9684 19.9913 21.8721 18.3592C22.7758 16.7271 23.1501 14.8545 22.943 13.0004M17.002 11.0001V7.99997L20.002 4.99988V7.99997H23.0021L20.002 11.0001H17.002ZM17.002 11.0001L14.0015 14.0001M13.0015 13.9998C13.0015 14.265 13.1068 14.5194 13.2944 14.7069C13.4819 14.8945 13.7363 14.9998 14.0015 14.9998C14.2667 14.9998 14.5211 14.8945 14.7086 14.7069C14.8962 14.5194 15.0015 14.265 15.0015 13.9998C15.0015 13.7346 14.8962 13.4802 14.7086 13.2927C14.5211 13.1051 14.2667 12.9998 14.0015 12.9998C13.7363 12.9998 13.4819 13.1051 13.2944 13.2927C13.1068 13.4802 13.0015 13.7346 13.0015 13.9998Z" stroke="#121217" stroke-width="1.75" stroke-linecap="round" stroke-linejoin="round"/>
</svg>
