<svg width="28" height="28" viewBox="0 0 28 28" fill="none" xmlns="http://www.w3.org/2000/svg">
<path d="M17.4998 14.0003H17.5115M5.5415 9.04199V14.0003H9.0415C10.9747 14.0003 12.4715 15.7457 13.7257 17.2168C14.2654 17.8501 14.9559 18.3373 15.7334 18.6336C16.5109 18.9299 17.3505 19.0258 18.1747 18.9124C18.999 18.799 19.7816 18.4801 20.4502 17.9848C21.1188 17.4896 21.6521 16.8341 22.0009 16.0787C22.3496 15.3233 22.5027 14.4922 22.4459 13.6621C22.3892 12.832 22.1244 12.0295 21.6761 11.3285C21.2277 10.6276 20.6102 10.0508 19.8804 9.6512C19.1505 9.25161 18.3319 9.04211 17.4998 9.04199H16.6248V9.62533C16.6248 9.93474 16.5019 10.2315 16.2831 10.4503C16.0643 10.6691 15.7676 10.792 15.4582 10.792H13.7082C13.3988 10.792 13.102 10.6691 12.8832 10.4503C12.6644 10.2315 12.5415 9.93474 12.5415 9.62533V9.04199H5.5415Z" stroke="#121217" stroke-width="1.75" stroke-linecap="round" stroke-linejoin="round"/>
</svg>
