<svg width="20" height="12" viewBox="0 0 20 12" fill="none" xmlns="http://www.w3.org/2000/svg">
<path d="M13.4993 6.00033H13.511M1.54102 1.04199V6.00033H5.04102C6.97418 6.00033 8.47102 7.74566 9.72518 9.21683C10.2649 9.85005 10.9554 10.3373 11.7329 10.6336C12.5104 10.9299 13.35 11.0258 14.1743 10.9124C14.9986 10.799 15.7811 10.4801 16.4497 9.98485C17.1184 9.48964 17.6516 8.83412 18.0004 8.07869C18.3492 7.32325 18.5022 6.4922 18.4455 5.66208C18.3887 4.83196 18.1239 4.02947 17.6756 3.32855C17.2272 2.62762 16.6097 2.05079 15.8799 1.6512C15.1501 1.25161 14.3314 1.04211 13.4993 1.04199H12.6243V1.62533C12.6243 1.93474 12.5014 2.23149 12.2826 2.45028C12.0638 2.66908 11.7671 2.79199 11.4577 2.79199H9.70768C9.39826 2.79199 9.10152 2.66908 8.88273 2.45028C8.66393 2.23149 8.54102 1.93474 8.54102 1.62533V1.04199H1.54102Z" stroke="#121217" stroke-width="1.75" stroke-linecap="round" stroke-linejoin="round"/>
</svg>
