<svg width="16" height="16" viewBox="0 0 16 16" fill="none" xmlns="http://www.w3.org/2000/svg">
<g opacity="0.5">
<g filter="url(#filter0_i_1086_28972)">
<path d="M4.39216 16C5.72462 16 6.91851 15.4067 7.724 14.4698C7.86648 14.304 8.13353 14.304 8.276 14.4698C9.08149 15.4067 10.2754 16 11.6078 16C14.0336 16 16 14.0336 16 11.6078C16 10.2754 15.4067 9.08149 14.4698 8.276C14.304 8.13353 14.304 7.86648 14.4698 7.724C15.4067 6.91851 16 5.72462 16 4.39216C16 1.96644 14.0336 0 11.6078 0C10.2754 0 9.08149 0.59335 8.276 1.53024C8.13353 1.69596 7.86648 1.69596 7.724 1.53024C6.91851 0.593351 5.72462 0 4.39216 0C1.96644 0 0 1.96644 0 4.39216C0 5.72462 0.593351 6.91851 1.53025 7.724C1.69596 7.86648 1.69596 8.13353 1.53024 8.276C0.59335 9.08149 0 10.2754 0 11.6078C0 14.0336 1.96644 16 4.39216 16Z" fill="#EBEBEF"/>
</g>
<path d="M7.34486 14.1438C6.6303 14.9749 5.57282 15.5 4.39216 15.5C2.24258 15.5 0.5 13.7574 0.5 11.6078C0.5 10.4272 1.02509 9.3697 1.85621 8.65514C2.25397 8.31316 2.25397 7.68684 1.85621 7.34486C1.02509 6.6303 0.5 5.57282 0.5 4.39216C0.5 2.24258 2.24258 0.5 4.39216 0.5C5.57282 0.5 6.6303 1.02509 7.34486 1.85621C7.68684 2.25397 8.31316 2.25398 8.65514 1.85621C9.3697 1.02509 10.4272 0.5 11.6078 0.5C13.7574 0.5 15.5 2.24258 15.5 4.39216C15.5 5.57282 14.9749 6.6303 14.1438 7.34486C13.746 7.68684 13.746 8.31316 14.1438 8.65514C14.9749 9.3697 15.5 10.4272 15.5 11.6078C15.5 13.7574 13.7574 15.5 11.6078 15.5C10.4272 15.5 9.3697 14.9749 8.65514 14.1438C8.31316 13.746 7.68684 13.746 7.34486 14.1438Z" stroke="#D1D1DB"/>
</g>
<defs>
<filter id="filter0_i_1086_28972" x="0" y="0" width="16" height="17" filterUnits="userSpaceOnUse" color-interpolation-filters="sRGB">
<feFlood flood-opacity="0" result="BackgroundImageFix"/>
<feBlend mode="normal" in="SourceGraphic" in2="BackgroundImageFix" result="shape"/>
<feColorMatrix in="SourceAlpha" type="matrix" values="0 0 0 0 0 0 0 0 0 0 0 0 0 0 0 0 0 0 127 0" result="hardAlpha"/>
<feOffset dy="1"/>
<feGaussianBlur stdDeviation="2"/>
<feComposite in2="hardAlpha" operator="arithmetic" k2="-1" k3="1"/>
<feColorMatrix type="matrix" values="0 0 0 0 0.0705882 0 0 0 0 0.0705882 0 0 0 0 0.0901961 0 0 0 0.02 0"/>
<feBlend mode="normal" in2="shape" result="effect1_innerShadow_1086_28972"/>
</filter>
</defs>
</svg>
