<svg width="25" height="24" viewBox="0 0 25 24" fill="none" xmlns="http://www.w3.org/2000/svg">
<path d="M15.6562 17H8.91477V15.9062H15.6562V17ZM13.5085 13.0426H8.875V11.9091H13.5085V13.0426ZM11.0426 9.90057L11.2017 14.2159C11.2216 14.6335 11.1835 15.0196 11.0874 15.3743C10.9946 15.7256 10.8139 15.9957 10.5455 16.1847L9.3125 15.9062C9.51136 15.9062 9.66383 15.8068 9.76989 15.608C9.87595 15.4091 9.94721 15.1771 9.98366 14.9119C10.0201 14.6468 10.035 14.4148 10.0284 14.2159L9.8892 9.90057C9.86269 9.17803 9.99361 8.57812 10.282 8.10085C10.5736 7.62358 10.9548 7.26728 11.4254 7.03196C11.8994 6.79664 12.3949 6.67898 12.9119 6.67898C13.3859 6.67898 13.8168 6.76515 14.2045 6.9375C14.5923 7.10653 14.9188 7.33523 15.1839 7.62358C15.4491 7.91193 15.6347 8.23674 15.7408 8.59801C15.8468 8.95597 15.8518 9.32386 15.7557 9.7017L14.6023 9.38352C14.6487 9.03883 14.5956 8.74716 14.4432 8.50852C14.294 8.26657 14.0852 8.08428 13.8168 7.96165C13.5516 7.8357 13.2699 7.77273 12.9716 7.77273C12.6534 7.77273 12.3468 7.84896 12.0518 8.00142C11.7569 8.15057 11.5149 8.38258 11.326 8.69744C11.1371 9.009 11.0426 9.41004 11.0426 9.90057Z" fill="#121217"/>
</svg>
