<svg width="28" height="28" viewBox="0 0 28 28" fill="none" xmlns="http://www.w3.org/2000/svg">
<path d="M21.4292 11.593C22.1106 12.7675 22.4513 13.3547 22.4513 13.9999C22.4513 14.6451 22.1106 15.2322 21.4292 16.4068L19.8034 19.209C19.1247 20.3789 18.7854 20.9639 18.2273 21.2849C17.6692 21.606 16.9919 21.606 15.6373 21.606H12.3628C11.0082 21.606 10.3309 21.606 9.7728 21.2849C9.21474 20.9639 8.87539 20.3789 8.19669 19.209L6.57093 16.4068C5.88953 15.2322 5.54883 14.6451 5.54883 13.9999C5.54883 13.3547 5.88953 12.7675 6.57093 11.593L8.19669 8.79074C8.87539 7.62088 9.21474 7.03596 9.7728 6.71488C10.3309 6.3938 11.0082 6.3938 12.3628 6.3938H15.6373C16.9919 6.3938 17.6692 6.3938 18.2273 6.71488C18.7854 7.03596 19.1247 7.62089 19.8034 8.79075L21.4292 11.593Z" stroke="#121217" stroke-width="1.5"/>
<path d="M11.4648 10.6194L16.5356 17.3804" stroke="#121217" stroke-width="1.5" stroke-linecap="round"/>
</svg>
