<svg width="147" height="30" viewBox="0 0 147 30" fill="none" xmlns="http://www.w3.org/2000/svg">
<g clip-path="url(#clip0_688_3970)">
<path d="M53.9152 23.7054C56.7216 27.09 59.3966 27.0183 61.5556 26.1006C63.5279 25.2611 64.5762 22.9891 64.2283 20.4618C64.1753 20.4842 64.0923 20.4932 64.0785 20.5268C62.832 23.5285 59.627 23.9539 57.111 23.2935C54.876 22.7093 53.7332 21.1379 53.3715 19.0024C53.2463 18.2098 53.1855 17.409 53.1895 16.6072C53.1687 13.3726 53.1895 10.1402 53.1895 6.82283H57.1732C57.187 7.11384 57.2147 7.42722 57.2147 7.74061C57.2147 10.3865 57.2147 13.0301 57.2147 15.6738C57.2158 16.2372 57.2597 16.7999 57.346 17.3571C57.6778 19.4702 59.0096 20.2872 61.1754 19.7321C62.9334 19.2844 64.1039 17.7287 64.2168 15.4051C64.3366 12.9428 64.3043 10.4805 64.3366 8.01818C64.3366 7.63988 64.3366 7.26158 64.3366 6.81836H68.2166C68.2629 6.95576 68.2938 7.0976 68.3088 7.24143C68.3088 12.0541 68.4286 16.8669 68.2581 21.6773C68.0554 27.3541 63.067 30.8416 57.3184 29.512C55.4083 29.0643 53.6595 28.3234 52.2794 26.9064C51.8738 26.49 51.7955 26.1632 52.2356 25.7021C52.8208 25.0932 53.3254 24.4195 53.9152 23.7054Z" fill="white"/>
<path d="M29.8999 6.98893V9.45125C28.6672 7.70525 26.8861 6.6084 24.9069 6.6084C21.1859 6.6084 18.1721 10.4742 18.1721 15.2444C18.1721 20.0146 21.1974 23.8782 24.9069 23.8782C26.8861 23.8782 28.6672 22.7791 29.8999 21.0331V23.8782H33.9481V6.98893H29.8999ZM26.0659 20.3325C23.8678 20.3325 22.0867 18.0537 22.0867 15.2399C22.0867 12.4262 23.8678 10.1474 26.0659 10.1474C28.264 10.1474 30.0473 12.4284 30.0473 15.2399C30.0473 18.0515 28.2663 20.3325 26.0659 20.3325Z" fill="white"/>
<path d="M100.559 6.98893V9.45125C99.3265 7.70525 97.5454 6.6084 95.5639 6.6084C91.8451 6.6084 88.8291 10.4742 88.8291 15.2444C88.8291 20.0146 91.8451 23.8827 95.5639 23.8827C97.5454 23.8827 99.3265 22.7836 100.559 21.0376V23.8827H104.605V6.98893H100.559ZM96.7252 20.3325C94.5271 20.3325 92.7437 18.0537 92.7437 15.2399C92.7437 12.4262 94.5271 10.1474 96.7252 10.1474C98.9232 10.1474 100.707 12.4284 100.707 15.2399C100.707 18.0515 98.9232 20.3325 96.7252 20.3325Z" fill="white"/>
<path d="M142.954 6.98893V9.45125C141.721 7.70525 139.94 6.6084 137.959 6.6084C134.24 6.6084 131.224 10.4742 131.224 15.2444C131.224 20.0146 134.24 23.8827 137.959 23.8827C139.94 23.8827 141.721 22.7836 142.954 21.0376V23.8827H147V6.98893H142.954ZM139.12 20.3325C136.922 20.3325 135.139 18.0537 135.139 15.2399C135.139 12.4262 136.922 10.1474 139.12 10.1474C141.318 10.1474 143.102 12.4284 143.102 15.2399C143.102 18.0515 141.318 20.3325 139.12 20.3325Z" fill="white"/>
<path d="M111.762 6.60352H107.605V23.8778H111.762V6.60352Z" fill="white"/>
<path d="M109.686 4.98284C111.102 4.98284 112.25 3.86739 112.25 2.49142C112.25 1.11545 111.102 0 109.686 0C108.269 0 107.121 1.11545 107.121 2.49142C107.121 3.86739 108.269 4.98284 109.686 4.98284Z" fill="#26B15D"/>
<path d="M80.4491 6.88109C78.5114 6.88109 76.7626 7.86825 75.5092 9.45085V6.60352H71.4402V29.9978H75.5092V21.3282C76.7626 22.913 78.5045 23.898 80.4491 23.898C84.2578 23.898 87.3475 20.0926 87.3475 15.3918C87.3475 10.691 84.2578 6.88109 80.4491 6.88109ZM79.2971 20.3321C77.5805 20.3321 76.1129 19.0472 75.5161 17.2273V13.5965C76.1129 11.7766 77.5898 10.4917 79.2971 10.4917C81.5459 10.4917 83.3661 12.6944 83.3661 15.4164C83.3661 18.1384 81.5389 20.3321 79.2902 20.3321H79.2971Z" fill="white"/>
<path d="M47.9801 12.7277L50.8763 11.2548C50.8325 9.94755 49.9408 8.76564 48.8026 8.06948C47.6644 7.37331 46.305 7.09574 44.964 6.96143C42.8028 6.73758 40.4826 6.91443 38.6877 8.10305C36.8928 9.29168 35.856 11.7406 36.8583 13.6164C37.6785 15.152 39.531 15.8683 41.2798 16.1974C43.0286 16.5264 44.8696 16.6115 46.4478 17.4129C46.8372 17.6121 47.2428 17.9076 47.2842 18.3351C47.3257 18.7627 47.017 19.0962 46.6967 19.3559C46.0551 19.8765 45.2867 20.2284 44.465 20.378C43.6433 20.5276 42.7959 20.4698 42.0038 20.2101C41.2117 19.9504 40.5014 19.4976 39.941 18.895C39.3805 18.2923 38.9887 17.56 38.8029 16.7682L35.6003 18.3933C34.9252 18.7425 37.4251 21.751 37.7454 22.0152C40.1139 24.0298 43.6922 24.3365 46.6091 23.3963C48.6621 22.7359 50.6044 21.2384 51.0145 19.1768C51.1391 18.5236 51.1072 17.8513 50.9214 17.212C50.7356 16.5727 50.4009 15.9835 49.9431 15.49C48.9547 14.4424 47.4939 13.941 46.0585 13.6612C44.623 13.3814 43.1438 13.2806 41.7498 12.8486C41.1462 12.6606 40.4619 12.2666 40.4918 11.651C40.5195 11.0802 41.1531 10.7422 41.713 10.5654C42.895 10.1915 44.1829 10.0349 45.3788 10.3617C46.5746 10.6885 47.6483 11.5682 47.9801 12.7277Z" fill="white"/>
<path d="M126.263 12.7277L129.159 11.2548C129.116 9.94755 128.222 8.76564 127.086 8.06948C125.95 7.37331 124.588 7.09574 123.247 6.96143C121.086 6.73758 118.766 6.91443 116.971 8.10305C115.176 9.29168 114.139 11.7406 115.141 13.6164C115.962 15.152 117.814 15.8683 119.561 16.1974C121.307 16.5264 123.153 16.6115 124.731 17.4129C125.12 17.6121 125.526 17.9076 125.567 18.3351C125.609 18.7627 125.3 19.0962 124.98 19.3559C124.338 19.8765 123.57 20.2284 122.748 20.378C121.927 20.5276 121.079 20.4698 120.287 20.2101C119.495 19.9504 118.785 19.4976 118.224 18.895C117.664 18.2923 117.272 17.56 117.086 16.7682L113.883 18.3933C113.208 18.7425 115.708 21.751 116.029 22.0152C118.397 24.0298 121.975 24.3365 124.892 23.3963C126.945 22.7359 128.888 21.2384 129.298 19.1768C129.422 18.5236 129.389 17.8515 129.204 17.2123C129.018 16.5731 128.684 15.9838 128.226 15.49C127.238 14.4424 125.777 13.941 124.342 13.6612C122.906 13.3814 121.427 13.2806 120.033 12.8486C119.429 12.6606 118.743 12.2666 118.775 11.651C118.803 11.0802 119.436 10.7422 119.996 10.5654C121.178 10.1915 122.466 10.0349 123.662 10.3617C124.858 10.6885 125.936 11.5682 126.263 12.7277Z" fill="white"/>
<path d="M14.723 9.54688C14.723 9.54688 11.7139 5.06994 5.16804 7.30841C5.16804 7.30841 1.62898 8.25528 0.0368652 13.7552C0.0368652 13.7552 3.31096 18.8253 11.2715 17.1935C11.2715 17.1957 18.0824 15.4766 14.723 9.54688ZM10.4305 14.0238C9.1011 14.6349 7.05508 14.4715 5.66803 14.1201C5.56895 14.0955 3.75795 13.4754 3.84089 13.3232C5.17034 10.9347 8.6495 8.73208 11.0757 11.1832C11.3253 11.4182 11.5079 11.712 11.6056 12.0361C11.813 12.8442 11.2024 13.6746 10.4305 14.0283V14.0238Z" fill="white"/>
<path d="M0.0368191 15.4053C0.0368191 15.4053 -0.758087 21.4066 4.99058 23.3832C10.7392 25.3598 15.2529 21.7491 16.5801 19.5151L13.306 17.6258C13.306 17.6258 10.7416 22.7743 3.39846 19.43C3.39846 19.43 0.74417 17.9101 0.0368191 15.4053Z" fill="#26B15D"/>
</g>
<defs>
<clipPath id="clip0_688_3970">
<rect width="147" height="30" fill="white"/>
</clipPath>
</defs>
</svg>
