<svg width="18" height="21" viewBox="0 0 18 21" fill="none" xmlns="http://www.w3.org/2000/svg">
<path d="M12.2185 8.26636L10.9256 9.55925C10.5351 9.94978 10.5351 10.5829 10.9256 10.9735L12.2185 12.2664M11.2185 10.2664L17.2185 10.2664M1.21851 15.2663V5.26633M13.2185 15.2663C13.2185 16.3709 12.3231 17.2663 11.2185 17.2663H7.21851M13.2185 5.26633C13.2185 4.16176 12.3231 3.26633 11.2185 3.26633H7.21851M2.10911 17.8601L4.10911 19.1934C5.43822 20.0795 7.21851 19.1267 7.21851 17.5293V3.00336C7.21851 1.40597 5.43822 0.453189 4.10911 1.33926L2.10911 2.6726C1.55271 3.04353 1.21851 3.66799 1.21851 4.3367V16.196C1.21851 16.8647 1.55271 17.4891 2.10911 17.8601Z" stroke="#8F919B" stroke-width="1.5" stroke-linecap="round"/>
</svg>
