<svg width="16" height="16" viewBox="0 0 16 16" fill="none" xmlns="http://www.w3.org/2000/svg">
<g opacity="0.5" filter="url(#filter0_i_470_11307)">
<path d="M4.39216 16C5.72462 16 6.91851 15.4067 7.724 14.4698C7.86648 14.304 8.13353 14.304 8.276 14.4698C9.08149 15.4067 10.2754 16 11.6078 16C14.0336 16 16 14.0336 16 11.6078C16 10.2754 15.4067 9.08149 14.4698 8.276C14.304 8.13353 14.304 7.86648 14.4698 7.724C15.4067 6.91851 16 5.72462 16 4.39216C16 1.96644 14.0336 0 11.6078 0C10.2754 0 9.08149 0.59335 8.276 1.53024C8.13353 1.69596 7.86648 1.69596 7.724 1.53024C6.91851 0.593351 5.72462 0 4.39216 0C1.96644 0 0 1.96644 0 4.39216C0 5.72462 0.593351 6.91851 1.53025 7.724C1.69596 7.86648 1.69596 8.13353 1.53024 8.276C0.59335 9.08149 0 10.2754 0 11.6078C0 14.0336 1.96644 16 4.39216 16Z" fill="#7047EB"/>
</g>
<g filter="url(#filter1_dd_470_11307)">
<circle cx="8.00078" cy="7.9998" r="3.2" fill="#F4F1FD"/>
</g>
<defs>
<filter id="filter0_i_470_11307" x="0" y="0" width="16" height="17" filterUnits="userSpaceOnUse" color-interpolation-filters="sRGB">
<feFlood flood-opacity="0" result="BackgroundImageFix"/>
<feBlend mode="normal" in="SourceGraphic" in2="BackgroundImageFix" result="shape"/>
<feColorMatrix in="SourceAlpha" type="matrix" values="0 0 0 0 0 0 0 0 0 0 0 0 0 0 0 0 0 0 127 0" result="hardAlpha"/>
<feOffset dy="1"/>
<feGaussianBlur stdDeviation="2"/>
<feComposite in2="hardAlpha" operator="arithmetic" k2="-1" k3="1"/>
<feColorMatrix type="matrix" values="0 0 0 0 0.0705882 0 0 0 0 0.0705882 0 0 0 0 0.0901961 0 0 0 0.02 0"/>
<feBlend mode="normal" in2="shape" result="effect1_innerShadow_470_11307"/>
</filter>
<filter id="filter1_dd_470_11307" x="1.80078" y="2.7998" width="12.4004" height="12.4004" filterUnits="userSpaceOnUse" color-interpolation-filters="sRGB">
<feFlood flood-opacity="0" result="BackgroundImageFix"/>
<feColorMatrix in="SourceAlpha" type="matrix" values="0 0 0 0 0 0 0 0 0 0 0 0 0 0 0 0 0 0 127 0" result="hardAlpha"/>
<feOffset dy="1"/>
<feGaussianBlur stdDeviation="1"/>
<feColorMatrix type="matrix" values="0 0 0 0 0.0705882 0 0 0 0 0.0705882 0 0 0 0 0.0901961 0 0 0 0.06 0"/>
<feBlend mode="normal" in2="BackgroundImageFix" result="effect1_dropShadow_470_11307"/>
<feColorMatrix in="SourceAlpha" type="matrix" values="0 0 0 0 0 0 0 0 0 0 0 0 0 0 0 0 0 0 127 0" result="hardAlpha"/>
<feOffset dy="1"/>
<feGaussianBlur stdDeviation="1.5"/>
<feColorMatrix type="matrix" values="0 0 0 0 0.0705882 0 0 0 0 0.0705882 0 0 0 0 0.0901961 0 0 0 0.1 0"/>
<feBlend mode="normal" in2="effect1_dropShadow_470_11307" result="effect2_dropShadow_470_11307"/>
<feBlend mode="normal" in="SourceGraphic" in2="effect2_dropShadow_470_11307" result="shape"/>
</filter>
</defs>
</svg>
